<?xml version="1.0" encoding="UTF-8"?>
<svg enable-background="new 0 0 40.255 27.95" version="1.1" viewBox="0 0 40.255 27.95" xml:space="preserve" xmlns="http://www.w3.org/2000/svg">

	
		<path d="M1.849,0h34.888c1.021,0,1.849,0.828,1.849,1.849v24.251c0,1.021-0.828,1.849-1.849,1.849H1.849    C0.828,27.95,0,27.122,0,26.101V1.849C0,0.828,0.828,0,1.849,0z" fill="#3B3B3C"/>
		<path d="m27.941 4.118h10.778c0.572 0 1.036 0.464 1.036 1.036v6.869c0 0.572-0.464 1.036-1.036 1.036h-10.778c-0.572 0-1.036-0.464-1.036-1.036v-6.869c0-0.572 0.464-1.036 1.036-1.036z" fill="#666" stroke="#666" stroke-miterlimit="10"/>
		<path d="m20.364 19.884h13.489c0.592 0 1.071 0.48 1.071 1.071v3.362c0 0.592-0.48 1.071-1.071 1.071h-13.489c-0.592 0-1.071-0.48-1.071-1.071v-3.362c0-0.591 0.48-1.071 1.071-1.071z" fill="#1E1E1E" stroke="#1E1E1E" stroke-miterlimit="10"/>
		<path d="m5.873 2.959h8.332c0.683 0 1.237 0.554 1.237 1.237v19.557c0 0.683-0.554 1.237-1.237 1.237h-8.332c-0.683 0-1.237-0.554-1.237-1.237v-19.556c0-0.684 0.554-1.238 1.237-1.238z" fill="#666" stroke="#666" stroke-miterlimit="10"/>
		<path d="m8.222 7.341h3.634c0.576 0 1.042 0.467 1.042 1.042v3.634c0 0.576-0.467 1.042-1.042 1.042h-3.634c-0.576 0-1.042-0.467-1.042-1.042v-3.634c0-0.575 0.466-1.042 1.042-1.042z" fill="#262626" stroke="#262626" stroke-miterlimit="10"/>
	


</svg>
