<?xml version="1.0" encoding="UTF-8"?>
<svg enable-background="new 0 0 54.001 47.987" version="1.1" viewBox="0 0 54.001 47.987" xml:space="preserve" xmlns="http://www.w3.org/2000/svg">

	
		<path d="m49.926 47.987h-45.851c-2.25 0-4.075-1.824-4.075-4.075v-39.837c0-2.25 1.825-4.075 4.075-4.075h45.851c2.251 0 4.075 1.825 4.075 4.075v39.837c0 2.251-1.824 4.075-4.075 4.075z" fill="#3B3B3C"/>
		
			
				<path d="m23.369 11.527h-18.577c-0.719 0-1.302-0.583-1.302-1.302v-4.193c0-0.719 0.583-1.302 1.302-1.302h18.578c0.719 0 1.302 0.583 1.302 1.302v4.193c-1e-3 0.719-0.584 1.302-1.303 1.302z" fill="#2D2D2D"/>
				<path d="m18.439 10.995h-8.717c-0.59 0-1.068-0.478-1.068-1.068v-3.597c0-0.59 0.478-1.068 1.068-1.068h8.717c0.59 0 1.068 0.478 1.068 1.068v3.597c0 0.59-0.478 1.068-1.068 1.068z" fill="#191919" stroke="#191919" stroke-miterlimit="10"/>
			
			
				<path d="m49.21 11.527h-18.578c-0.719 0-1.302-0.583-1.302-1.302v-4.193c0-0.719 0.583-1.302 1.302-1.302h18.578c0.719 0 1.302 0.583 1.302 1.302v4.193c-1e-3 0.719-0.583 1.302-1.302 1.302z" fill="#2D2D2D"/>
				<path d="m44.28 10.995h-8.717c-0.59 0-1.068-0.478-1.068-1.068v-3.597c0-0.59 0.478-1.068 1.068-1.068h8.717c0.59 0 1.068 0.478 1.068 1.068v3.597c-1e-3 0.59-0.479 1.068-1.068 1.068z" fill="#191919" stroke="#191919" stroke-miterlimit="10"/>
			
			
				<path d="m23.369 22.104h-18.577c-0.719 0-1.302-0.583-1.302-1.302v-4.193c0-0.719 0.583-1.302 1.302-1.302h18.578c0.719 0 1.302 0.583 1.302 1.302v4.193c-1e-3 0.719-0.584 1.302-1.303 1.302z" fill="#2D2D2D"/>
				<path d="m18.439 21.572h-8.717c-0.59 0-1.068-0.478-1.068-1.068v-3.597c0-0.59 0.478-1.068 1.068-1.068h8.717c0.59 0 1.068 0.478 1.068 1.068v3.597c0 0.59-0.478 1.068-1.068 1.068z" fill="#191919" stroke="#191919" stroke-miterlimit="10"/>
			
			
				<path d="m49.21 22.104h-18.578c-0.719 0-1.302-0.583-1.302-1.302v-4.193c0-0.719 0.583-1.302 1.302-1.302h18.578c0.719 0 1.302 0.583 1.302 1.302v4.193c-1e-3 0.719-0.583 1.302-1.302 1.302z" fill="#2D2D2D"/>
				<path d="m44.28 21.572h-8.717c-0.59 0-1.068-0.478-1.068-1.068v-3.597c0-0.59 0.478-1.068 1.068-1.068h8.717c0.59 0 1.068 0.478 1.068 1.068v3.597c-1e-3 0.59-0.479 1.068-1.068 1.068z" fill="#191919" stroke="#191919" stroke-miterlimit="10"/>
			
			
				<path d="m23.369 32.68h-18.577c-0.719 0-1.302-0.583-1.302-1.302v-4.193c0-0.719 0.583-1.302 1.302-1.302h18.578c0.719 0 1.302 0.583 1.302 1.302v4.193c-1e-3 0.72-0.584 1.302-1.303 1.302z" fill="#2D2D2D"/>
				<path d="m18.439 32.148h-8.717c-0.59 0-1.068-0.478-1.068-1.068v-3.597c0-0.59 0.478-1.068 1.068-1.068h8.717c0.59 0 1.068 0.478 1.068 1.068v3.597c0 0.59-0.478 1.068-1.068 1.068z" fill="#191919" stroke="#191919" stroke-miterlimit="10"/>
			
			
				<path d="m49.21 32.68h-18.578c-0.719 0-1.302-0.583-1.302-1.302v-4.193c0-0.719 0.583-1.302 1.302-1.302h18.578c0.719 0 1.302 0.583 1.302 1.302v4.193c-1e-3 0.72-0.583 1.302-1.302 1.302z" fill="#2D2D2D"/>
				<path d="m44.28 32.148h-8.717c-0.59 0-1.068-0.478-1.068-1.068v-3.597c0-0.59 0.478-1.068 1.068-1.068h8.717c0.59 0 1.068 0.478 1.068 1.068v3.597c-1e-3 0.59-0.479 1.068-1.068 1.068z" fill="#191919" stroke="#191919" stroke-miterlimit="10"/>
			
			
				<path d="m23.369 43.257h-18.577c-0.719 0-1.302-0.583-1.302-1.302v-4.193c0-0.719 0.583-1.302 1.302-1.302h18.578c0.719 0 1.302 0.583 1.302 1.302v4.193c-1e-3 0.719-0.584 1.302-1.303 1.302z" fill="#2D2D2D"/>
				<path d="m18.439 42.725h-8.717c-0.59 0-1.068-0.478-1.068-1.068v-3.597c0-0.59 0.478-1.068 1.068-1.068h8.717c0.59 0 1.068 0.478 1.068 1.068v3.597c0 0.59-0.478 1.068-1.068 1.068z" fill="#191919" stroke="#191919" stroke-miterlimit="10"/>
			
			
				<path d="m49.21 43.257h-18.578c-0.719 0-1.302-0.583-1.302-1.302v-4.193c0-0.719 0.583-1.302 1.302-1.302h18.578c0.719 0 1.302 0.583 1.302 1.302v4.193c-1e-3 0.719-0.583 1.302-1.302 1.302z" fill="#2D2D2D"/>
				<path d="m44.28 42.725h-8.717c-0.59 0-1.068-0.478-1.068-1.068v-3.597c0-0.59 0.478-1.068 1.068-1.068h8.717c0.59 0 1.068 0.478 1.068 1.068v3.597c-1e-3 0.59-0.479 1.068-1.068 1.068z" fill="#191919" stroke="#191919" stroke-miterlimit="10"/>
			
		
	


</svg>
