<?xml version="1.0" encoding="UTF-8"?>
<svg enable-background="new 0 0 263.379 209.889" version="1.1" viewBox="0 0 263.38 209.89" xml:space="preserve" xmlns="http://www.w3.org/2000/svg">

	<g stroke-miterlimit="10">
		<path d="m258.56 16.779-11.955-11.954c-2.769-2.769-6.525-4.325-10.441-4.325h-208.94c-3.916 0-7.672 1.556-10.441 4.325l-11.954 11.954c-2.769 2.769-4.325 6.525-4.325 10.441v155.45c0 3.916 1.556 7.672 4.325 10.441l11.954 11.954c2.769 2.769 6.525 4.325 10.441 4.325h208.94c3.916 0 7.672-1.556 10.441-4.325l11.954-11.954c2.769-2.769 4.325-6.525 4.325-10.441v-155.45c0-3.916-1.555-7.672-4.324-10.441zm-22.585 174.16c0 8.671-7.029 15.7-15.7 15.7h-40.477c-2.35 0-4.256-1.905-4.256-4.256v-50.614c0-1.168-0.947-2.115-2.115-2.115h-9.543c-1.168 0-2.115 0.947-2.115 2.115v50.614c0 2.35-1.905 4.256-4.256 4.256h-51.296c-2.35 0-4.256-1.905-4.256-4.256v-50.614c0-1.168-0.947-2.115-2.115-2.115h-9.825c-1.168 0-2.115 0.947-2.115 2.115v50.614c0 2.35-1.905 4.256-4.256 4.256h-40.538c-8.671 0-15.7-7.029-15.7-15.7v-170.66c0-8.671 7.029-15.7 15.7-15.7h40.539c2.35 0 4.256 1.905 4.256 4.256l-1e-3 50.784c0 1.168 0.947 2.115 2.115 2.115h9.825c1.168 0 2.115-0.947 2.115-2.115l1e-3 -50.784c0-2.35 1.905-4.256 4.256-4.256h51.296c2.35 0 4.256 1.905 4.256 4.256l-1e-3 50.784c0 1.168 0.947 2.115 2.115 2.115h9.543c1.168 0 2.115-0.947 2.115-2.115l1e-3 -50.784c0-2.35 1.905-4.256 4.256-4.256h40.476c8.671 0 15.7 7.029 15.7 15.7v170.66z" fill="#666" stroke="#666"/>
		<path d="m227.16 147.64h-190.94c-4.317 0-7.816-3.499-7.816-7.816v-68.428c0-4.317 3.499-7.816 7.816-7.816h190.94c4.317 0 7.816 3.499 7.816 7.816v68.428c0 4.317-3.499 7.816-7.816 7.816z" fill="#4A4B4C" stroke="#4A4B4C"/>
		<path d="m24.217 129.25h-20.526c-1.762 0-3.191-1.429-3.191-3.191v-40.894c0-1.762 1.429-3.191 3.191-3.191h20.526c1.762 0 3.191 1.429 3.191 3.191v40.893c0 1.763-1.429 3.192-3.191 3.192z" fill="#808080" stroke="#808080"/>
		<path d="m259.69 129.25h-20.528c-1.762 0-3.191-1.429-3.191-3.191v-40.894c0-1.762 1.429-3.191 3.191-3.191h20.528c1.762 0 3.191 1.429 3.191 3.191v40.893c0 1.763-1.428 3.192-3.191 3.192z" fill="#808080" stroke="#808080"/>
	</g>


</svg>
