<?xml version="1.0" encoding="UTF-8"?>
<svg enable-background="new 0 0 66.435 41.81" version="1.1" viewBox="0 0 66.435 41.81" xml:space="preserve" xmlns="http://www.w3.org/2000/svg">

	
		<path d="M59.753,41.81H3.689C1.652,41.81,0,40.159,0,38.121V3.689C0,1.652,1.652,0,3.689,0h56.064    c2.037,0,3.689,1.652,3.689,3.689v34.432C63.442,40.159,61.79,41.81,59.753,41.81z" fill="#3B3B3C"/>
		<path d="m62.305 13.823h-8.461c-2.005 0-3.63-1.625-3.63-3.63v-4.799c0-2.005 1.625-3.63 3.63-3.63h8.461c2.005 0 3.63 1.625 3.63 3.63v4.799c0 2.005-1.625 3.63-3.63 3.63z" fill="#666" stroke="#666" stroke-miterlimit="10"/>
		<path d="m62.593 27.042h-6.179c-1.845 0-3.341-1.496-3.341-3.341v-2.964c0-1.845 1.496-3.341 3.341-3.341h6.179c1.845 0 3.341 1.496 3.341 3.341v2.964c1e-3 1.845-1.495 3.341-3.341 3.341z" fill="#666" stroke="#666" stroke-miterlimit="10"/>
		<path d="m62.16 39.966h-5.312c-2.085 0-3.775-1.69-3.775-3.775v-2.275c0-2.085 1.69-3.775 3.775-3.775h5.312c2.085 0 3.775 1.69 3.775 3.775v2.275c0 2.085-1.69 3.775-3.775 3.775z" fill="#666" stroke="#666" stroke-miterlimit="10"/>
		<path d="m41.666 6.722h-34.888c-0.873 0-1.581-0.708-1.581-1.581v-0.858c0-0.873 0.708-1.581 1.581-1.581h34.888c0.873 0 1.581 0.708 1.581 1.581v0.857c1e-3 0.874-0.707 1.582-1.581 1.582z" fill="#1E1E1E" stroke="#1E1E1E" stroke-miterlimit="10"/>
		<path d="m25.545 24.042h-7.514c-0.922 0-1.669-0.747-1.669-1.669v-7.514c0-0.922 0.747-1.669 1.669-1.669h7.514c0.922 0 1.669 0.747 1.669 1.669v7.514c1e-3 0.921-0.747 1.669-1.669 1.669z" fill="#262626" stroke="#262626" stroke-miterlimit="10"/>
	


</svg>
