<?xml version="1.0" encoding="UTF-8"?>
<svg enable-background="new 0 0 714.75 408.75" version="1.1" viewBox="0 0 714.75 408.75" xml:space="preserve" xmlns="http://www.w3.org/2000/svg">

	
		<rect width="714.75" height="408.75" fill="#3B3B3C" stroke="#3B3B3C" stroke-miterlimit="10"/>
	
	<g stroke-miterlimit="10">
		
			<path d="m425.49 58.341c0-19.203-16.625-34.524-36.267-32.353-15.013 1.659-27.113 13.853-28.67 28.878-1.476 14.252 6.25 26.882 17.962 32.675 4.695 2.322 7.824 6.927 7.824 12.165v14.045h13.185v-13.955c0-5.131 2.878-9.874 7.502-12.098 10.923-5.254 18.464-16.424 18.464-29.357z" fill="#999" stroke="#999"/>
			<circle cx="392.93" cy="58.341" r="14.011" fill="#808080" stroke="#808080"/>
		
		
			<path d="m351.8 58.341c0-19.203-16.625-34.524-36.267-32.353-15.013 1.659-27.113 13.853-28.67 28.878-1.476 14.252 6.25 26.882 17.962 32.675 4.695 2.322 7.824 6.927 7.824 12.165v14.045h13.185v-13.955c0-5.131 2.878-9.874 7.502-12.098 10.923-5.254 18.464-16.424 18.464-29.357z" fill="#999" stroke="#999"/>
			<circle cx="319.24" cy="58.341" r="14.011" fill="#808080" stroke="#808080"/>
		
		
			<path d="m425.81 350.41c0 19.203-16.625 34.524-36.267 32.353-15.013-1.659-27.113-13.853-28.67-28.878-1.476-14.252 6.25-26.882 17.962-32.675 4.695-2.322 7.824-6.927 7.824-12.165v-14.044h13.185v13.954c0 5.131 2.878 9.874 7.502 12.098 10.923 5.254 18.464 16.424 18.464 29.357z" fill="#999" stroke="#999"/>
			<circle cx="393.26" cy="350.41" r="14.011" fill="#808080" stroke="#808080"/>
		
		
			<path d="m352.12 350.41c0 19.203-16.625 34.524-36.267 32.353-15.013-1.659-27.113-13.853-28.67-28.878-1.476-14.252 6.25-26.882 17.962-32.675 4.695-2.322 7.824-6.927 7.824-12.165v-14.044h13.185v13.954c0 5.131 2.878 9.874 7.502 12.098 10.924 5.254 18.464 16.424 18.464 29.357z" fill="#999" stroke="#999"/>
			<circle cx="319.56" cy="350.41" r="14.011" fill="#808080" stroke="#808080"/>
		
		
			<path d="m219.97 72.122c0.878-1.694 3.234-6.672 3.385-11.558 0.043-1.403-1.079-2.525-2.482-2.482-4.886 0.151-9.864 2.508-11.558 3.385-0.299 0.155-0.389 0.544-0.177 0.755l10.076 10.076c0.212 0.212 0.601 0.123 0.756-0.176z" fill="#808080" stroke="#808080"/>
			<circle cx="194.02" cy="87.412" r="11.753" fill="#808080" stroke="#808080"/>
			<path d="m188.43 47.179-18.021 18.021c-1.872 1.872-1.872 4.908 0 6.78l40.972 40.972c1.872 1.872 4.908 1.872 6.78 0l2.03-2.03c1.276-1.276 3.344-1.276 4.62 0l8.989 8.989 9.34-9.34-8.989-8.989c-1.276-1.276-1.276-3.344 0-4.62l2.03-2.03c1.872-1.872 1.872-4.908 0-6.78l-40.972-40.972c-1.871-1.874-4.906-1.874-6.779-1e-3z" fill="#999" stroke="#999"/>
		
		
			<path d="m516 96.737c1.694 0.878 6.672 3.234 11.558 3.385 1.403 0.043 2.525-1.079 2.482-2.482-0.151-4.886-2.508-9.864-3.385-11.558-0.155-0.299-0.544-0.389-0.755-0.177l-10.076 10.076c-0.213 0.212-0.124 0.601 0.176 0.756z" fill="#808080" stroke="#808080"/>
			<circle cx="500.71" cy="70.791" r="11.753" fill="#808080" stroke="#808080"/>
			<path d="m540.95 65.199-18.021-18.021c-1.872-1.872-4.908-1.872-6.78 0l-40.972 40.972c-1.872 1.872-1.872 4.908 0 6.78l2.03 2.03c1.276 1.276 1.276 3.344 0 4.62l-8.989 8.989 9.34 9.34 8.989-8.989c1.276-1.276 3.344-1.276 4.62 0l2.03 2.03c1.872 1.872 4.908 1.872 6.78 0l40.972-40.972c1.874-1.871 1.874-4.906 1e-3 -6.779z" fill="#999" stroke="#999"/>
		
		
			<path d="m219.67 339.38c0.878 1.694 3.234 6.672 3.385 11.558 0.043 1.403-1.079 2.525-2.482 2.482-4.886-0.151-9.864-2.508-11.558-3.385-0.299-0.155-0.389-0.544-0.177-0.755l10.076-10.076c0.213-0.212 0.601-0.123 0.756 0.176z" fill="#808080" stroke="#808080"/>
			<circle cx="193.72" cy="324.09" r="11.753" fill="#808080" stroke="#808080"/>
			<path d="m188.13 364.32-18.021-18.021c-1.872-1.872-1.872-4.908 0-6.78l40.972-40.972c1.872-1.872 4.908-1.872 6.78 0l2.03 2.03c1.276 1.276 3.344 1.276 4.62 0l8.989-8.989 9.34 9.34-8.989 8.989c-1.276 1.276-1.276 3.344 0 4.62l2.03 2.03c1.872 1.872 1.872 4.908 0 6.78l-40.972 40.972c-1.871 1.874-4.907 1.874-6.779 1e-3z" fill="#999" stroke="#999"/>
		
		
			<path d="m518.12 314.76c1.694-0.878 6.672-3.234 11.558-3.385 1.403-0.043 2.525 1.079 2.482 2.482-0.151 4.886-2.508 9.864-3.385 11.558-0.155 0.299-0.544 0.389-0.755 0.177l-10.076-10.076c-0.212-0.212-0.123-0.601 0.176-0.756z" fill="#808080" stroke="#808080"/>
			<circle cx="502.83" cy="340.71" r="11.753" fill="#808080" stroke="#808080"/>
			<path d="m543.06 346.3-18.021 18.021c-1.872 1.872-4.908 1.872-6.78 0l-40.972-40.972c-1.872-1.872-1.872-4.908 0-6.78l2.03-2.03c1.276-1.276 1.276-3.344 0-4.62l-8.989-8.989 9.34-9.34 8.989 8.989c1.276 1.276 3.344 1.276 4.62 0l2.03-2.03c1.872-1.872 4.908-1.872 6.78 0l40.972 40.972c1.874 1.871 1.874 4.906 1e-3 6.779z" fill="#999" stroke="#999"/>
		
	</g>
	<g stroke-miterlimit="10">
		<path d="m495.44 101.29" fill="#fff" stroke="#000"/>
		<path d="m483.11 117.57-11.954-11.954c-2.769-2.769-6.525-4.325-10.441-4.325h-208.94c-3.916 0-7.672 1.556-10.441 4.325l-11.954 11.954c-2.769 2.769-4.325 6.525-4.325 10.441v155.45c0 3.916 1.556 7.672 4.325 10.441l11.954 11.954c2.769 2.769 6.525 4.325 10.441 4.325h208.94c3.916 0 7.672-1.556 10.441-4.325l11.954-11.954c2.769-2.769 4.325-6.525 4.325-10.441v-155.45c0-3.916-1.556-7.672-4.325-10.441zm-22.585 174.16c0 8.671-7.029 15.7-15.7 15.7h-40.477c-2.35 0-4.256-1.905-4.256-4.256v-50.614c0-1.168-0.947-2.115-2.115-2.115h-9.543c-1.168 0-2.115 0.947-2.115 2.115v50.614c0 2.35-1.905 4.256-4.256 4.256h-51.296c-2.35 0-4.256-1.905-4.256-4.256v-50.614c0-1.168-0.947-2.115-2.115-2.115h-9.825c-1.168 0-2.115 0.947-2.115 2.115v50.614c0 2.35-1.905 4.256-4.256 4.256h-40.538c-8.671 0-15.7-7.029-15.7-15.7v-170.66c0-8.671 7.029-15.7 15.7-15.7h40.539c2.35 0 4.256 1.905 4.256 4.256l-1e-3 50.784c0 1.168 0.947 2.115 2.115 2.115h9.825c1.168 0 2.115-0.947 2.115-2.115l1e-3 -50.784c0-2.35 1.905-4.256 4.256-4.256h51.296c2.35 0 4.256 1.905 4.256 4.256l-1e-3 50.784c0 1.168 0.947 2.115 2.115 2.115h9.543c1.168 0 2.115-0.947 2.115-2.115l1e-3 -50.784c0-2.35 1.905-4.256 4.256-4.256h40.476c8.671 0 15.7 7.029 15.7 15.7v170.66z" fill="#666" stroke="#666"/>
		<path d="m451.71 248.43h-190.94c-4.317 0-7.816-3.499-7.816-7.816v-68.428c0-4.317 3.499-7.816 7.816-7.816h190.94c4.317 0 7.816 3.499 7.816 7.816v68.428c0 4.317-3.5 7.816-7.817 7.816z" fill="#4A4B4C" stroke="#4A4B4C"/>
		<path d="m248.78 230.04h-20.526c-1.762 0-3.191-1.429-3.191-3.191v-40.893c0-1.762 1.429-3.191 3.191-3.191h20.526c1.762 0 3.191 1.429 3.191 3.191v40.893c0 1.762-1.429 3.191-3.191 3.191z" fill="#808080" stroke="#808080"/>
		<path d="m484.25 230.04h-20.528c-1.762 0-3.191-1.429-3.191-3.191v-40.893c0-1.762 1.429-3.191 3.191-3.191h20.528c1.762 0 3.191 1.429 3.191 3.191v40.893c0 1.762-1.429 3.191-3.191 3.191z" fill="#808080" stroke="#808080"/>
	</g>
	
		
			<path d="m388.87 209.16h-56.064c-2.037 0-3.689-1.652-3.689-3.689v-34.432c0-2.037 1.652-3.689 3.689-3.689h56.064c2.037 0 3.689 1.652 3.689 3.689v34.432c0 2.037-1.652 3.689-3.689 3.689z" fill="#3B3B3C"/>
			<path d="m391.42 181.17h-8.461c-2.005 0-3.63-1.625-3.63-3.63v-4.799c0-2.005 1.625-3.63 3.63-3.63h8.461c2.005 0 3.63 1.625 3.63 3.63v4.799c0 2.005-1.625 3.63-3.63 3.63z" fill="#666" stroke="#666" stroke-miterlimit="10"/>
			<path d="m391.71 194.39h-6.179c-1.845 0-3.341-1.496-3.341-3.341v-2.964c0-1.845 1.496-3.341 3.341-3.341h6.179c1.845 0 3.341 1.496 3.341 3.341v2.964c1e-3 1.845-1.495 3.341-3.341 3.341z" fill="#666" stroke="#666" stroke-miterlimit="10"/>
			<path d="m391.27 207.31h-5.312c-2.085 0-3.775-1.69-3.775-3.775v-2.275c0-2.085 1.69-3.775 3.775-3.775h5.312c2.085 0 3.775 1.69 3.775 3.775v2.275c0 2.084-1.69 3.775-3.775 3.775z" fill="#666" stroke="#666" stroke-miterlimit="10"/>
			<path d="m370.78 174.07h-34.888c-0.873 0-1.581-0.708-1.581-1.581v-0.857c0-0.873 0.708-1.581 1.581-1.581h34.888c0.873 0 1.581 0.708 1.581 1.581v0.857c0 0.873-0.708 1.581-1.581 1.581z" fill="#1E1E1E" stroke="#1E1E1E" stroke-miterlimit="10"/>
			<path d="m354.66 191.39h-7.514c-0.922 0-1.669-0.747-1.669-1.669v-7.514c0-0.922 0.747-1.669 1.669-1.669h7.514c0.922 0 1.669 0.747 1.669 1.669v7.514c0 0.922-0.747 1.669-1.669 1.669z" fill="#262626" stroke="#262626" stroke-miterlimit="10"/>
		
		
			<path d="m300.4 189.94h-19.985c-2.037 0-3.689-1.652-3.689-3.689v-13.34c0-2.037 1.652-3.689 3.689-3.689h19.985c2.037 0 3.689 1.652 3.689 3.689v13.34c0 2.038-1.651 3.689-3.689 3.689z" fill="#3B3B3C"/>
			<path d="m300.36 182.76h-4.612c-0.878 0-1.589-0.711-1.589-1.589s0.711-1.589 1.589-1.589h4.612c0.878 0 1.589 0.711 1.589 1.589s-0.712 1.589-1.589 1.589z" fill="#666" stroke="#666" stroke-miterlimit="10"/>
			<path d="m290.71 181.98h-0.926c-0.846 0-1.531-0.686-1.531-1.531v-2.022c0-0.846 0.686-1.531 1.531-1.531h0.926c0.846 0 1.531 0.686 1.531 1.531v2.022c0 0.845-0.685 1.531-1.531 1.531z" fill="#666" stroke="#666" stroke-miterlimit="10"/>
			<path d="m296.96 173h-13.418c-0.518 0-0.938-0.42-0.938-0.938s0.42-0.938 0.938-0.938h13.418c0.518 0 0.938 0.42 0.938 0.938-1e-3 0.518-0.42 0.938-0.938 0.938z" fill="#262626" stroke="#262626" stroke-miterlimit="10"/>
			<path d="m294.22 187.84h-7.955c-0.518 0-0.938-0.42-0.938-0.938s0.42-0.938 0.938-0.938h7.955c0.518 0 0.938 0.42 0.938 0.938s-0.42 0.938-0.938 0.938z" fill="#262626" stroke="#262626" stroke-miterlimit="10"/>
		
		
			<path d="m388.92 241.94h-56.169c-2.037 0-3.689-1.652-3.689-3.689v-18.307c0-2.037 1.652-3.689 3.689-3.689h56.169c2.037 0 3.689 1.652 3.689 3.689v18.307c0 2.038-1.651 3.689-3.689 3.689z" fill="#3B3B3C"/>
			<path d="m388.41 234.98v-12.347c0-0.592 0.48-1.072 1.072-1.072s1.072 0.48 1.072 1.072v12.347c0 0.592-0.48 1.072-1.072 1.072s-1.072-0.48-1.072-1.072z" fill="#1E1E1E" stroke="#1E1E1E" stroke-miterlimit="10"/>
			<path d="m361.29 232.11h-1.497c-0.509 0-0.921-0.412-0.921-0.921v-7.457c0-0.509 0.412-0.921 0.921-0.921h1.497c0.509 0 0.921 0.412 0.921 0.921v7.457c0 0.509-0.412 0.921-0.921 0.921z" fill="#262626" stroke="#262626" stroke-miterlimit="10"/>
			<path d="m331.21 235.07v-12.347c0-0.592 0.48-1.072 1.072-1.072s1.072 0.48 1.072 1.072v12.347c0 0.592-0.48 1.072-1.072 1.072s-1.072-0.48-1.072-1.072z" fill="#1E1E1E" stroke="#1E1E1E" stroke-miterlimit="10"/>
			<path d="m342.68 239.85h-5.1c-0.601 0-1.088-0.487-1.088-1.088v-3.455c0-0.601 0.487-1.088 1.088-1.088h5.1c0.601 0 1.088 0.487 1.088 1.088v3.455c0 0.601-0.487 1.088-1.088 1.088z" fill="#666" stroke="#666" stroke-miterlimit="10"/>
			<path d="m352.17 224.57h-3.564c-0.509 0-0.921-0.412-0.921-0.921v-4.16c0-0.509 0.412-0.921 0.921-0.921h3.564c0.509 0 0.921 0.412 0.921 0.921v4.16c1e-3 0.509-0.412 0.921-0.921 0.921z" fill="#262626" stroke="#262626" stroke-miterlimit="10"/>
			<path d="m355.36 239.85h-5.101c-0.601 0-1.088-0.487-1.088-1.088v-3.455c0-0.601 0.487-1.088 1.088-1.088h5.101c0.601 0 1.088 0.487 1.088 1.088v3.455c0 0.601-0.487 1.088-1.088 1.088z" fill="#666" stroke="#666" stroke-miterlimit="10"/>
			<path d="m370.82 239.85h-5.1c-0.601 0-1.088-0.487-1.088-1.088v-3.455c0-0.601 0.487-1.088 1.088-1.088h5.1c0.601 0 1.088 0.487 1.088 1.088v3.455c0 0.601-0.487 1.088-1.088 1.088z" fill="#666" stroke="#666" stroke-miterlimit="10"/>
			<path d="m383.5 239.85h-5.1c-0.601 0-1.088-0.487-1.088-1.088v-3.455c0-0.601 0.487-1.088 1.088-1.088h5.1c0.601 0 1.088 0.487 1.088 1.088v3.455c0 0.601-0.487 1.088-1.088 1.088z" fill="#666" stroke="#666" stroke-miterlimit="10"/>
		
		
			<path d="m313.33 242.97h-45.851c-2.251 0-4.075-1.825-4.075-4.075v-39.837c0-2.251 1.824-4.075 4.075-4.075h45.851c2.251 0 4.075 1.825 4.075 4.075v39.837c1e-3 2.25-1.824 4.075-4.075 4.075z" fill="#3B3B3C"/>
			
				
					<path d="m286.77 206.5h-18.578c-0.719 0-1.302-0.583-1.302-1.302v-4.193c0-0.719 0.583-1.302 1.302-1.302h18.578c0.719 0 1.302 0.583 1.302 1.302v4.193c-1e-3 0.72-0.583 1.302-1.302 1.302z" fill="#2D2D2D"/>
					<path d="m281.84 205.97h-8.717c-0.59 0-1.068-0.478-1.068-1.068v-3.597c0-0.59 0.478-1.068 1.068-1.068h8.717c0.59 0 1.068 0.478 1.068 1.068v3.597c0 0.59-0.478 1.068-1.068 1.068z" fill="#191919" stroke="#191919" stroke-miterlimit="10"/>
				
				
					<path d="m312.61 206.5h-18.578c-0.719 0-1.302-0.583-1.302-1.302v-4.193c0-0.719 0.583-1.302 1.302-1.302h18.578c0.719 0 1.302 0.583 1.302 1.302v4.193c0 0.72-0.583 1.302-1.302 1.302z" fill="#2D2D2D"/>
					<path d="m307.68 205.97h-8.717c-0.59 0-1.068-0.478-1.068-1.068v-3.597c0-0.59 0.478-1.068 1.068-1.068h8.717c0.59 0 1.068 0.478 1.068 1.068v3.597c-1e-3 0.59-0.479 1.068-1.068 1.068z" fill="#191919" stroke="#191919" stroke-miterlimit="10"/>
				
				
					<path d="m286.77 217.08h-18.578c-0.719 0-1.302-0.583-1.302-1.302v-4.193c0-0.719 0.583-1.302 1.302-1.302h18.578c0.719 0 1.302 0.583 1.302 1.302v4.193c-1e-3 0.719-0.583 1.302-1.302 1.302z" fill="#2D2D2D"/>
					<path d="m281.84 216.55h-8.717c-0.59 0-1.068-0.478-1.068-1.068v-3.598c0-0.59 0.478-1.068 1.068-1.068h8.717c0.59 0 1.068 0.478 1.068 1.068v3.598c0 0.59-0.478 1.068-1.068 1.068z" fill="#191919" stroke="#191919" stroke-miterlimit="10"/>
				
				
					<path d="m312.61 217.08h-18.578c-0.719 0-1.302-0.583-1.302-1.302v-4.193c0-0.719 0.583-1.302 1.302-1.302h18.578c0.719 0 1.302 0.583 1.302 1.302v4.193c0 0.719-0.583 1.302-1.302 1.302z" fill="#2D2D2D"/>
					<path d="m307.68 216.55h-8.717c-0.59 0-1.068-0.478-1.068-1.068v-3.598c0-0.59 0.478-1.068 1.068-1.068h8.717c0.59 0 1.068 0.478 1.068 1.068v3.598c-1e-3 0.59-0.479 1.068-1.068 1.068z" fill="#191919" stroke="#191919" stroke-miterlimit="10"/>
				
				
					<path d="m286.77 227.66h-18.578c-0.719 0-1.302-0.583-1.302-1.302v-4.193c0-0.719 0.583-1.302 1.302-1.302h18.578c0.719 0 1.302 0.583 1.302 1.302v4.193c-1e-3 0.719-0.583 1.302-1.302 1.302z" fill="#2D2D2D"/>
					<path d="m281.84 227.13h-8.717c-0.59 0-1.068-0.478-1.068-1.068v-3.598c0-0.59 0.478-1.068 1.068-1.068h8.717c0.59 0 1.068 0.478 1.068 1.068v3.598c0 0.59-0.478 1.068-1.068 1.068z" fill="#191919" stroke="#191919" stroke-miterlimit="10"/>
				
				
					<path d="m312.61 227.66h-18.578c-0.719 0-1.302-0.583-1.302-1.302v-4.193c0-0.719 0.583-1.302 1.302-1.302h18.578c0.719 0 1.302 0.583 1.302 1.302v4.193c0 0.719-0.583 1.302-1.302 1.302z" fill="#2D2D2D"/>
					<path d="m307.68 227.13h-8.717c-0.59 0-1.068-0.478-1.068-1.068v-3.598c0-0.59 0.478-1.068 1.068-1.068h8.717c0.59 0 1.068 0.478 1.068 1.068v3.598c-1e-3 0.59-0.479 1.068-1.068 1.068z" fill="#191919" stroke="#191919" stroke-miterlimit="10"/>
				
				
					<path d="m286.77 238.24h-18.578c-0.719 0-1.302-0.583-1.302-1.302v-4.193c0-0.719 0.583-1.302 1.302-1.302h18.578c0.719 0 1.302 0.583 1.302 1.302v4.193c-1e-3 0.719-0.583 1.302-1.302 1.302z" fill="#2D2D2D"/>
					<path d="m281.84 237.7h-8.717c-0.59 0-1.068-0.478-1.068-1.068v-3.598c0-0.59 0.478-1.068 1.068-1.068h8.717c0.59 0 1.068 0.478 1.068 1.068v3.598c0 0.59-0.478 1.068-1.068 1.068z" fill="#191919" stroke="#191919" stroke-miterlimit="10"/>
				
				
					<path d="m312.61 238.24h-18.578c-0.719 0-1.302-0.583-1.302-1.302v-4.193c0-0.719 0.583-1.302 1.302-1.302h18.578c0.719 0 1.302 0.583 1.302 1.302v4.193c0 0.719-0.583 1.302-1.302 1.302z" fill="#2D2D2D"/>
					<path d="m307.68 237.7h-8.717c-0.59 0-1.068-0.478-1.068-1.068v-3.598c0-0.59 0.478-1.068 1.068-1.068h8.717c0.59 0 1.068 0.478 1.068 1.068v3.598c-1e-3 0.59-0.479 1.068-1.068 1.068z" fill="#191919" stroke="#191919" stroke-miterlimit="10"/>
				
			
		
		
			<path d="m410.34 193.61h34.888c1.021 0 1.849 0.828 1.849 1.849v24.251c0 1.021-0.828 1.849-1.849 1.849h-34.888c-1.021 0-1.849-0.828-1.849-1.849v-24.251c-1e-3 -1.021 0.827-1.849 1.849-1.849z" fill="#3B3B3C"/>
			<path d="m436.43 197.73h10.778c0.572 0 1.036 0.464 1.036 1.036v6.869c0 0.572-0.464 1.036-1.036 1.036h-10.778c-0.572 0-1.036-0.464-1.036-1.036v-6.869c0-0.572 0.464-1.036 1.036-1.036z" fill="#666" stroke="#666" stroke-miterlimit="10"/>
			<path d="m428.85 213.5h13.489c0.592 0 1.071 0.48 1.071 1.071v3.362c0 0.592-0.48 1.071-1.071 1.071h-13.489c-0.592 0-1.071-0.48-1.071-1.071v-3.362c0-0.591 0.479-1.071 1.071-1.071z" fill="#1E1E1E" stroke="#1E1E1E" stroke-miterlimit="10"/>
			<path d="m414.36 196.57h8.332c0.683 0 1.237 0.554 1.237 1.237v19.557c0 0.683-0.554 1.237-1.237 1.237h-8.332c-0.683 0-1.237-0.554-1.237-1.237v-19.557c0-0.683 0.554-1.237 1.237-1.237z" fill="#666" stroke="#666" stroke-miterlimit="10"/>
			<path d="m416.71 200.95h3.634c0.576 0 1.042 0.467 1.042 1.042v3.634c0 0.576-0.467 1.042-1.042 1.042h-3.634c-0.576 0-1.042-0.467-1.042-1.042v-3.634c0-0.575 0.467-1.042 1.042-1.042z" fill="#262626" stroke="#262626" stroke-miterlimit="10"/>
		
	


</svg>
