<?xml version="1.0" encoding="UTF-8"?>
<svg enable-background="new 0 0 53.245 84.511" version="1.1" viewBox="0 0 53.245 84.511" xml:space="preserve" xmlns="http://www.w3.org/2000/svg">

	<g stroke-miterlimit="10">
		<path d="m41.412 40.438c1.818-0.577 7.005-2.431 10.566-5.779 1.023-0.961 1.023-2.549 0-3.51-3.562-3.348-8.748-5.202-10.566-5.779-0.321-0.102-0.659 0.109-0.659 0.409v14.25c-1e-3 0.299 0.337 0.511 0.659 0.409z" fill="#808080" stroke="#808080"/>
		<circle cx="12.253" cy="32.904" r="11.753" fill="#808080" stroke="#808080"/>
		<path d="m36.749 0.5h-25.485c-2.648 0-4.794 2.146-4.794 4.794v57.943c0 2.648 2.146 4.794 4.794 4.794h2.871c1.804 0 3.267 1.462 3.267 3.267v12.713h13.209v-12.713c0-1.804 1.462-3.267 3.267-3.267h2.871c2.648 0 4.794-2.146 4.794-4.794v-57.943c0-2.648-2.147-4.794-4.794-4.794z" fill="#999" stroke="#999"/>
	</g>


</svg>
