<?xml version="1.0" encoding="iso-8859-1"?>
<!-- Generator: Adobe Illustrator 24.0.1, SVG Export Plug-In . SVG Version: 6.00 Build 0)  -->
<svg version="1.1" xmlns="http://www.w3.org/2000/svg" xmlns:xlink="http://www.w3.org/1999/xlink" x="0px" y="0px"
	 viewBox="0 0 53.245 84.511" style="enable-background:new 0 0 53.245 84.511;" xml:space="preserve">
<g id="SideThruster">
	<g>
		<path style="fill:#808080;stroke:#808080;stroke-miterlimit:10;" d="M41.412,40.438c1.818-0.577,7.005-2.431,10.566-5.779
			c1.023-0.961,1.023-2.549,0-3.51c-3.562-3.348-8.748-5.202-10.566-5.779c-0.321-0.102-0.659,0.109-0.659,0.409v14.25
			C40.752,40.328,41.09,40.54,41.412,40.438z"/>
		<circle style="fill:#808080;stroke:#808080;stroke-miterlimit:10;" cx="12.253" cy="32.904" r="11.753"/>
		<path style="fill:#999999;stroke:#999999;stroke-miterlimit:10;" d="M36.749,0.5H11.264c-2.648,0-4.794,2.146-4.794,4.794v57.943
			c0,2.648,2.146,4.794,4.794,4.794h2.871c1.804,0,3.267,1.462,3.267,3.267v12.713h13.209V71.298c0-1.804,1.462-3.267,3.267-3.267
			h2.871c2.648,0,4.794-2.146,4.794-4.794V5.294C41.543,2.646,39.396,0.5,36.749,0.5z"/>
	</g>
</g>
<g id="Layer_1">
</g>
</svg>
