<?xml version="1.0" encoding="UTF-8"?>
<svg enable-background="new 0 0 63.547 25.685" version="1.1" viewBox="0 0 63.547 25.685" xml:space="preserve" xmlns="http://www.w3.org/2000/svg">

	
		<path d="m59.858 25.685h-56.169c-2.037 0-3.689-1.652-3.689-3.689v-18.307c0-2.037 1.652-3.689 3.689-3.689h56.169c2.037 0 3.689 1.652 3.689 3.689v18.307c0 2.037-1.652 3.689-3.689 3.689z" fill="#3B3B3C"/>
		<path d="m59.346 18.725v-12.347c0-0.592 0.48-1.072 1.072-1.072s1.072 0.48 1.072 1.072v12.347c0 0.592-0.48 1.072-1.072 1.072s-1.072-0.48-1.072-1.072z" fill="#1E1E1E" stroke="#1E1E1E" stroke-miterlimit="10"/>
		<path d="m32.229 15.849h-1.497c-0.509 0-0.921-0.412-0.921-0.921v-7.457c0-0.509 0.412-0.921 0.921-0.921h1.497c0.509 0 0.921 0.412 0.921 0.921v7.457c0 0.508-0.413 0.921-0.921 0.921z" fill="#262626" stroke="#262626" stroke-miterlimit="10"/>
		<path d="m2.148 18.812v-12.347c0-0.592 0.48-1.072 1.072-1.072s1.072 0.48 1.072 1.072v12.347c0 0.592-0.48 1.072-1.072 1.072s-1.072-0.48-1.072-1.072z" fill="#1E1E1E" stroke="#1E1E1E" stroke-miterlimit="10"/>
		<path d="m13.621 23.591h-5.101c-0.601 0-1.088-0.487-1.088-1.088v-3.455c0-0.601 0.487-1.088 1.088-1.088h5.101c0.601 0 1.088 0.487 1.088 1.088v3.455c0 0.601-0.487 1.088-1.088 1.088z" fill="#666" stroke="#666" stroke-miterlimit="10"/>
		<path d="m23.114 8.307h-3.564c-0.509 0-0.921-0.412-0.921-0.921v-4.16c0-0.509 0.412-0.921 0.921-0.921h3.564c0.509 0 0.921 0.412 0.921 0.921v4.16c0 0.509-0.412 0.921-0.921 0.921z" fill="#262626" stroke="#262626" stroke-miterlimit="10"/>
		<path d="m26.304 23.591h-5.101c-0.601 0-1.088-0.487-1.088-1.088v-3.455c0-0.601 0.487-1.088 1.088-1.088h5.101c0.601 0 1.088 0.487 1.088 1.088v3.455c1e-3 0.601-0.487 1.088-1.088 1.088z" fill="#666" stroke="#666" stroke-miterlimit="10"/>
		<path d="m41.757 23.591h-5.101c-0.601 0-1.088-0.487-1.088-1.088v-3.455c0-0.601 0.487-1.088 1.088-1.088h5.101c0.601 0 1.088 0.487 1.088 1.088v3.455c0 0.601-0.487 1.088-1.088 1.088z" fill="#666" stroke="#666" stroke-miterlimit="10"/>
		<path d="m54.441 23.591h-5.101c-0.601 0-1.088-0.487-1.088-1.088v-3.455c0-0.601 0.487-1.088 1.088-1.088h5.101c0.601 0 1.088 0.487 1.088 1.088v3.455c0 0.601-0.487 1.088-1.088 1.088z" fill="#666" stroke="#666" stroke-miterlimit="10"/>
	


</svg>
