<?xml version="1.0" encoding="iso-8859-1"?>
<!-- Generator: Adobe Illustrator 24.0.1, SVG Export Plug-In . SVG Version: 6.00 Build 0)  -->
<svg version="1.1" xmlns="http://www.w3.org/2000/svg" xmlns:xlink="http://www.w3.org/1999/xlink" x="0px" y="0px"
	 viewBox="0 0 714.75 408.75" style="enable-background:new 0 0 714.75 408.75;" xml:space="preserve">
<g id="Full_Robot">
	<g id="Background">
		<rect style="fill:#3B3B3C;stroke:#3B3B3C;stroke-miterlimit:10;" width="714.75" height="408.75"/>
	</g>
	<g id="Motors">
		<g>
			<path style="fill:#999999;stroke:#999999;stroke-miterlimit:10;" d="M425.492,58.341c0-19.203-16.625-34.524-36.267-32.353
				c-15.013,1.659-27.113,13.853-28.67,28.878c-1.476,14.252,6.25,26.882,17.962,32.675c4.695,2.322,7.824,6.927,7.824,12.165
				v14.045h13.185V99.796c0-5.131,2.878-9.874,7.502-12.098C417.951,82.444,425.492,71.274,425.492,58.341z"/>
			<circle style="fill:#808080;stroke:#808080;stroke-miterlimit:10;" cx="392.933" cy="58.341" r="14.011"/>
		</g>
		<g>
			<path style="fill:#999999;stroke:#999999;stroke-miterlimit:10;" d="M351.8,58.341c0-19.203-16.625-34.524-36.267-32.353
				c-15.013,1.659-27.113,13.853-28.67,28.878c-1.476,14.252,6.25,26.882,17.962,32.675c4.695,2.322,7.824,6.927,7.824,12.165
				v14.045h13.185V99.796c0-5.131,2.878-9.874,7.502-12.098C344.259,82.444,351.8,71.274,351.8,58.341z"/>
			<circle style="fill:#808080;stroke:#808080;stroke-miterlimit:10;" cx="319.241" cy="58.341" r="14.011"/>
		</g>
		<g>
			<path style="fill:#999999;stroke:#999999;stroke-miterlimit:10;" d="M425.814,350.409c0,19.203-16.625,34.524-36.267,32.353
				c-15.013-1.659-27.113-13.853-28.67-28.878c-1.476-14.252,6.25-26.882,17.962-32.675c4.695-2.322,7.824-6.927,7.824-12.165V295
				h13.185v13.954c0,5.131,2.878,9.874,7.502,12.098C418.273,326.306,425.814,337.476,425.814,350.409z"/>
			<circle style="fill:#808080;stroke:#808080;stroke-miterlimit:10;" cx="393.255" cy="350.409" r="14.011"/>
		</g>
		<g>
			<path style="fill:#999999;stroke:#999999;stroke-miterlimit:10;" d="M352.122,350.409c0,19.203-16.625,34.524-36.267,32.353
				c-15.013-1.659-27.113-13.853-28.67-28.878c-1.476-14.252,6.25-26.882,17.962-32.675c4.695-2.322,7.824-6.927,7.824-12.165V295
				h13.185v13.954c0,5.131,2.878,9.874,7.502,12.098C344.582,326.306,352.122,337.476,352.122,350.409z"/>
			<circle style="fill:#808080;stroke:#808080;stroke-miterlimit:10;" cx="319.563" cy="350.409" r="14.011"/>
		</g>
		<g>
			<path style="fill:#808080;stroke:#808080;stroke-miterlimit:10;" d="M219.969,72.122c0.878-1.694,3.234-6.672,3.385-11.558
				c0.043-1.403-1.079-2.525-2.482-2.482c-4.886,0.151-9.864,2.508-11.558,3.385c-0.299,0.155-0.389,0.544-0.177,0.755
				l10.076,10.076C219.425,72.51,219.814,72.421,219.969,72.122z"/>
			<circle style="fill:#808080;stroke:#808080;stroke-miterlimit:10;" cx="194.023" cy="87.412" r="11.753"/>
			<path style="fill:#999999;stroke:#999999;stroke-miterlimit:10;" d="M188.431,47.179l-18.021,18.021
				c-1.872,1.872-1.872,4.908,0,6.78l40.972,40.972c1.872,1.872,4.908,1.872,6.78,0l2.03-2.03c1.276-1.276,3.344-1.276,4.62,0
				l8.989,8.989l9.34-9.34l-8.989-8.989c-1.276-1.276-1.276-3.344,0-4.62l2.03-2.03c1.872-1.872,1.872-4.908,0-6.78l-40.972-40.972
				C193.339,45.306,190.304,45.306,188.431,47.179z"/>
		</g>
		<g>
			<path style="fill:#808080;stroke:#808080;stroke-miterlimit:10;" d="M516.005,96.737c1.694,0.878,6.672,3.234,11.558,3.385
				c1.403,0.043,2.525-1.079,2.482-2.482c-0.151-4.886-2.508-9.864-3.385-11.558c-0.155-0.299-0.544-0.389-0.755-0.177
				l-10.076,10.076C515.616,96.193,515.705,96.582,516.005,96.737z"/>
			<circle style="fill:#808080;stroke:#808080;stroke-miterlimit:10;" cx="500.714" cy="70.791" r="11.753"/>
			<path style="fill:#999999;stroke:#999999;stroke-miterlimit:10;" d="M540.947,65.199l-18.021-18.021
				c-1.872-1.872-4.908-1.872-6.78,0l-40.972,40.972c-1.872,1.872-1.872,4.908,0,6.78l2.03,2.03c1.276,1.276,1.276,3.344,0,4.62
				l-8.989,8.989l9.34,9.34l8.989-8.989c1.276-1.276,3.344-1.276,4.62,0l2.03,2.03c1.872,1.872,4.908,1.872,6.78,0l40.972-40.972
				C542.82,70.107,542.82,67.072,540.947,65.199z"/>
		</g>
		<g>
			<path style="fill:#808080;stroke:#808080;stroke-miterlimit:10;" d="M219.67,339.379c0.878,1.694,3.234,6.672,3.385,11.558
				c0.043,1.403-1.079,2.525-2.482,2.482c-4.886-0.151-9.864-2.508-11.558-3.385c-0.299-0.155-0.389-0.544-0.177-0.755
				l10.076-10.076C219.127,338.991,219.515,339.08,219.67,339.379z"/>
			<circle style="fill:#808080;stroke:#808080;stroke-miterlimit:10;" cx="193.725" cy="324.088" r="11.753"/>
			<path style="fill:#999999;stroke:#999999;stroke-miterlimit:10;" d="M188.133,364.322l-18.021-18.021
				c-1.872-1.872-1.872-4.908,0-6.78l40.972-40.972c1.872-1.872,4.908-1.872,6.78,0l2.03,2.03c1.276,1.276,3.344,1.276,4.62,0
				l8.989-8.989l9.34,9.34l-8.989,8.989c-1.276,1.276-1.276,3.344,0,4.62l2.03,2.03c1.872,1.872,1.872,4.908,0,6.78l-40.972,40.972
				C193.041,366.195,190.005,366.195,188.133,364.322z"/>
		</g>
		<g>
			<path style="fill:#808080;stroke:#808080;stroke-miterlimit:10;" d="M518.121,314.764c1.694-0.878,6.672-3.234,11.558-3.385
				c1.403-0.043,2.525,1.079,2.482,2.482c-0.151,4.886-2.508,9.864-3.385,11.558c-0.155,0.299-0.544,0.389-0.755,0.177
				l-10.076-10.076C517.733,315.308,517.822,314.919,518.121,314.764z"/>
			<circle style="fill:#808080;stroke:#808080;stroke-miterlimit:10;" cx="502.83" cy="340.71" r="11.753"/>
			<path style="fill:#999999;stroke:#999999;stroke-miterlimit:10;" d="M543.064,346.302l-18.021,18.021
				c-1.872,1.872-4.908,1.872-6.78,0l-40.972-40.972c-1.872-1.872-1.872-4.908,0-6.78l2.03-2.03c1.276-1.276,1.276-3.344,0-4.62
				l-8.989-8.989l9.34-9.34l8.989,8.989c1.276,1.276,3.344,1.276,4.62,0l2.03-2.03c1.872-1.872,4.908-1.872,6.78,0l40.972,40.972
				C544.937,341.394,544.937,344.429,543.064,346.302z"/>
		</g>
	</g>
	<g id="Chassis">
		<path style="fill:#FFFFFF;stroke:#000000;stroke-miterlimit:10;" d="M495.443,101.289"/>
		<path style="fill:#666666;stroke:#666666;stroke-miterlimit:10;" d="M483.113,117.568l-11.954-11.954
			c-2.769-2.769-6.525-4.325-10.441-4.325H251.779c-3.916,0-7.672,1.556-10.441,4.325l-11.954,11.954
			c-2.769,2.769-4.325,6.525-4.325,10.441v155.449c0,3.916,1.556,7.672,4.325,10.441l11.954,11.954
			c2.769,2.769,6.525,4.325,10.441,4.325h208.939c3.916,0,7.672-1.556,10.441-4.325l11.954-11.954
			c2.769-2.769,4.325-6.525,4.325-10.441V128.009C487.438,124.093,485.882,120.337,483.113,117.568z M460.528,291.73
			c0,8.671-7.029,15.7-15.7,15.7h-40.477c-2.35,0-4.256-1.905-4.256-4.256v-50.614c0-1.168-0.947-2.115-2.115-2.115h-9.543
			c-1.168,0-2.115,0.947-2.115,2.115v50.614c0,2.35-1.905,4.256-4.256,4.256h-51.296c-2.35,0-4.256-1.905-4.256-4.256v-50.614
			c0-1.168-0.947-2.115-2.115-2.115h-9.825c-1.168,0-2.115,0.947-2.115,2.115v50.614c0,2.35-1.905,4.256-4.256,4.256h-40.538
			c-8.671,0-15.7-7.029-15.7-15.7V121.067c0-8.671,7.029-15.7,15.7-15.7h40.539c2.35,0,4.256,1.905,4.256,4.256l-0.001,50.784
			c0,1.168,0.947,2.115,2.115,2.115h9.825c1.168,0,2.115-0.947,2.115-2.115l0.001-50.784c0-2.35,1.905-4.256,4.256-4.256h51.296
			c2.35,0,4.256,1.905,4.256,4.256l-0.001,50.784c0,1.168,0.947,2.115,2.115,2.115h9.543c1.168,0,2.115-0.947,2.115-2.115
			l0.001-50.784c0-2.35,1.905-4.256,4.256-4.256h40.476c8.671,0,15.7,7.029,15.7,15.7V291.73z"/>
		<path style="fill:#4A4B4C;stroke:#4A4B4C;stroke-miterlimit:10;" d="M451.713,248.429H260.776c-4.317,0-7.816-3.499-7.816-7.816
			v-68.428c0-4.317,3.499-7.816,7.816-7.816h190.938c4.317,0,7.816,3.499,7.816,7.816v68.428
			C459.53,244.93,456.03,248.429,451.713,248.429z"/>
		<path style="fill:#808080;stroke:#808080;stroke-miterlimit:10;" d="M248.775,230.037h-20.526c-1.762,0-3.191-1.429-3.191-3.191
			v-40.893c0-1.762,1.429-3.191,3.191-3.191h20.526c1.762,0,3.191,1.429,3.191,3.191v40.893
			C251.966,228.608,250.537,230.037,248.775,230.037z"/>
		<path style="fill:#808080;stroke:#808080;stroke-miterlimit:10;" d="M484.247,230.037h-20.528c-1.762,0-3.191-1.429-3.191-3.191
			v-40.893c0-1.762,1.429-3.191,3.191-3.191h20.528c1.762,0,3.191,1.429,3.191,3.191v40.893
			C487.438,228.608,486.009,230.037,484.247,230.037z"/>
	</g>
	<g id="Electronics">
		<g>
			<path style="fill:#3B3B3C;" d="M388.866,209.158h-56.064c-2.037,0-3.689-1.652-3.689-3.689v-34.432
				c0-2.037,1.652-3.689,3.689-3.689h56.064c2.037,0,3.689,1.652,3.689,3.689v34.432
				C392.555,207.506,390.903,209.158,388.866,209.158z"/>
			<path style="fill:#666666;stroke:#666666;stroke-miterlimit:10;" d="M391.418,181.17h-8.461c-2.005,0-3.63-1.625-3.63-3.63
				v-4.799c0-2.005,1.625-3.63,3.63-3.63h8.461c2.005,0,3.63,1.625,3.63,3.63v4.799C395.048,179.545,393.423,181.17,391.418,181.17z
				"/>
			<path style="fill:#666666;stroke:#666666;stroke-miterlimit:10;" d="M391.706,194.389h-6.179c-1.845,0-3.341-1.496-3.341-3.341
				v-2.964c0-1.845,1.496-3.341,3.341-3.341h6.179c1.845,0,3.341,1.496,3.341,3.341v2.964
				C395.048,192.893,393.552,194.389,391.706,194.389z"/>
			<path style="fill:#666666;stroke:#666666;stroke-miterlimit:10;" d="M391.273,207.314h-5.312c-2.085,0-3.775-1.69-3.775-3.775
				v-2.275c0-2.085,1.69-3.775,3.775-3.775h5.312c2.085,0,3.775,1.69,3.775,3.775v2.275
				C395.048,205.623,393.358,207.314,391.273,207.314z"/>
			<path style="fill:#1E1E1E;stroke:#1E1E1E;stroke-miterlimit:10;" d="M370.779,174.069h-34.888c-0.873,0-1.581-0.708-1.581-1.581
				v-0.857c0-0.873,0.708-1.581,1.581-1.581h34.888c0.873,0,1.581,0.708,1.581,1.581v0.857
				C372.36,173.361,371.652,174.069,370.779,174.069z"/>
			<path style="fill:#262626;stroke:#262626;stroke-miterlimit:10;" d="M354.658,191.389h-7.514c-0.922,0-1.669-0.747-1.669-1.669
				v-7.514c0-0.922,0.747-1.669,1.669-1.669h7.514c0.922,0,1.669,0.747,1.669,1.669v7.514
				C356.327,190.642,355.58,191.389,354.658,191.389z"/>
		</g>
		<g>
			<path style="fill:#3B3B3C;" d="M300.396,189.942h-19.985c-2.037,0-3.689-1.652-3.689-3.689v-13.34
				c0-2.037,1.652-3.689,3.689-3.689h19.985c2.037,0,3.689,1.652,3.689,3.689v13.34
				C304.085,188.291,302.434,189.942,300.396,189.942z"/>
			<path style="fill:#666666;stroke:#666666;stroke-miterlimit:10;" d="M300.357,182.761h-4.612c-0.878,0-1.589-0.711-1.589-1.589
				l0,0c0-0.878,0.711-1.589,1.589-1.589h4.612c0.878,0,1.589,0.711,1.589,1.589l0,0
				C301.946,182.05,301.234,182.761,300.357,182.761z"/>
			<path style="fill:#666666;stroke:#666666;stroke-miterlimit:10;" d="M290.709,181.979h-0.926c-0.846,0-1.531-0.686-1.531-1.531
				v-2.022c0-0.846,0.686-1.531,1.531-1.531h0.926c0.846,0,1.531,0.686,1.531,1.531v2.022
				C292.24,181.293,291.555,181.979,290.709,181.979z"/>
			<path style="fill:#262626;stroke:#262626;stroke-miterlimit:10;" d="M296.955,172.997h-13.418c-0.518,0-0.938-0.42-0.938-0.938
				l0,0c0-0.518,0.42-0.938,0.938-0.938h13.418c0.518,0,0.938,0.42,0.938,0.938l0,0
				C297.892,172.577,297.473,172.997,296.955,172.997z"/>
			<path style="fill:#262626;stroke:#262626;stroke-miterlimit:10;" d="M294.223,187.838h-7.955c-0.518,0-0.938-0.42-0.938-0.938
				l0,0c0-0.518,0.42-0.938,0.938-0.938h7.955c0.518,0,0.938,0.42,0.938,0.938l0,0C295.161,187.418,294.741,187.838,294.223,187.838
				z"/>
		</g>
		<g>
			<path style="fill:#3B3B3C;" d="M388.918,241.944h-56.169c-2.037,0-3.689-1.652-3.689-3.689v-18.307
				c0-2.037,1.652-3.689,3.689-3.689h56.169c2.037,0,3.689,1.652,3.689,3.689v18.307
				C392.607,240.293,390.956,241.944,388.918,241.944z"/>
			<path style="fill:#1E1E1E;stroke:#1E1E1E;stroke-miterlimit:10;" d="M388.407,234.985v-12.347c0-0.592,0.48-1.072,1.072-1.072
				l0,0c0.592,0,1.072,0.48,1.072,1.072v12.347c0,0.592-0.48,1.072-1.072,1.072l0,0
				C388.887,236.057,388.407,235.577,388.407,234.985z"/>
			<path style="fill:#262626;stroke:#262626;stroke-miterlimit:10;" d="M361.289,232.108h-1.497c-0.509,0-0.921-0.412-0.921-0.921
				v-7.457c0-0.509,0.412-0.921,0.921-0.921h1.497c0.509,0,0.921,0.412,0.921,0.921v7.457
				C362.21,231.696,361.798,232.108,361.289,232.108z"/>
			<path style="fill:#1E1E1E;stroke:#1E1E1E;stroke-miterlimit:10;" d="M331.208,235.072v-12.347c0-0.592,0.48-1.072,1.072-1.072
				l0,0c0.592,0,1.072,0.48,1.072,1.072v12.347c0,0.592-0.48,1.072-1.072,1.072l0,0
				C331.688,236.144,331.208,235.664,331.208,235.072z"/>
			<path style="fill:#666666;stroke:#666666;stroke-miterlimit:10;" d="M342.681,239.851h-5.1c-0.601,0-1.088-0.487-1.088-1.088
				v-3.455c0-0.601,0.487-1.088,1.088-1.088h5.1c0.601,0,1.088,0.487,1.088,1.088v3.455
				C343.769,239.364,343.282,239.851,342.681,239.851z"/>
			<path style="fill:#262626;stroke:#262626;stroke-miterlimit:10;" d="M352.174,224.566h-3.564c-0.509,0-0.921-0.412-0.921-0.921
				v-4.16c0-0.509,0.412-0.921,0.921-0.921h3.564c0.509,0,0.921,0.412,0.921,0.921v4.16
				C353.096,224.154,352.683,224.566,352.174,224.566z"/>
			<path style="fill:#666666;stroke:#666666;stroke-miterlimit:10;" d="M355.365,239.851h-5.101c-0.601,0-1.088-0.487-1.088-1.088
				v-3.455c0-0.601,0.487-1.088,1.088-1.088h5.101c0.601,0,1.088,0.487,1.088,1.088v3.455
				C356.453,239.364,355.966,239.851,355.365,239.851z"/>
			<path style="fill:#666666;stroke:#666666;stroke-miterlimit:10;" d="M370.817,239.851h-5.1c-0.601,0-1.088-0.487-1.088-1.088
				v-3.455c0-0.601,0.487-1.088,1.088-1.088h5.1c0.601,0,1.088,0.487,1.088,1.088v3.455
				C371.905,239.364,371.418,239.851,370.817,239.851z"/>
			<path style="fill:#666666;stroke:#666666;stroke-miterlimit:10;" d="M383.501,239.851h-5.1c-0.601,0-1.088-0.487-1.088-1.088
				v-3.455c0-0.601,0.487-1.088,1.088-1.088h5.1c0.601,0,1.088,0.487,1.088,1.088v3.455
				C384.589,239.364,384.102,239.851,383.501,239.851z"/>
		</g>
		<g>
			<path style="fill:#3B3B3C;" d="M313.329,242.966h-45.851c-2.251,0-4.075-1.825-4.075-4.075v-39.837
				c0-2.251,1.824-4.075,4.075-4.075h45.851c2.251,0,4.075,1.825,4.075,4.075v39.837
				C317.405,241.141,315.58,242.966,313.329,242.966z"/>
			<g>
				<g>
					<path style="fill:#2D2D2D;" d="M286.773,206.505h-18.578c-0.719,0-1.302-0.583-1.302-1.302v-4.193
						c0-0.719,0.583-1.302,1.302-1.302h18.578c0.719,0,1.302,0.583,1.302,1.302v4.193
						C288.074,205.923,287.492,206.505,286.773,206.505z"/>
					<path style="fill:#191919;stroke:#191919;stroke-miterlimit:10;" d="M281.842,205.973h-8.717c-0.59,0-1.068-0.478-1.068-1.068
						v-3.597c0-0.59,0.478-1.068,1.068-1.068h8.717c0.59,0,1.068,0.478,1.068,1.068v3.597
						C282.91,205.495,282.432,205.973,281.842,205.973z"/>
				</g>
				<g>
					<path style="fill:#2D2D2D;" d="M312.613,206.505h-18.578c-0.719,0-1.302-0.583-1.302-1.302v-4.193
						c0-0.719,0.583-1.302,1.302-1.302h18.578c0.719,0,1.302,0.583,1.302,1.302v4.193
						C313.915,205.923,313.332,206.505,312.613,206.505z"/>
					<path style="fill:#191919;stroke:#191919;stroke-miterlimit:10;" d="M307.683,205.973h-8.717c-0.59,0-1.068-0.478-1.068-1.068
						v-3.597c0-0.59,0.478-1.068,1.068-1.068h8.717c0.59,0,1.068,0.478,1.068,1.068v3.597
						C308.75,205.495,308.272,205.973,307.683,205.973z"/>
				</g>
				<g>
					<path style="fill:#2D2D2D;" d="M286.773,217.082h-18.578c-0.719,0-1.302-0.583-1.302-1.302v-4.193
						c0-0.719,0.583-1.302,1.302-1.302h18.578c0.719,0,1.302,0.583,1.302,1.302v4.193
						C288.074,216.499,287.492,217.082,286.773,217.082z"/>
					<path style="fill:#191919;stroke:#191919;stroke-miterlimit:10;" d="M281.842,216.55h-8.717c-0.59,0-1.068-0.478-1.068-1.068
						v-3.598c0-0.59,0.478-1.068,1.068-1.068h8.717c0.59,0,1.068,0.478,1.068,1.068v3.598
						C282.91,216.072,282.432,216.55,281.842,216.55z"/>
				</g>
				<g>
					<path style="fill:#2D2D2D;" d="M312.613,217.082h-18.578c-0.719,0-1.302-0.583-1.302-1.302v-4.193
						c0-0.719,0.583-1.302,1.302-1.302h18.578c0.719,0,1.302,0.583,1.302,1.302v4.193
						C313.915,216.499,313.332,217.082,312.613,217.082z"/>
					<path style="fill:#191919;stroke:#191919;stroke-miterlimit:10;" d="M307.683,216.55h-8.717c-0.59,0-1.068-0.478-1.068-1.068
						v-3.598c0-0.59,0.478-1.068,1.068-1.068h8.717c0.59,0,1.068,0.478,1.068,1.068v3.598
						C308.75,216.072,308.272,216.55,307.683,216.55z"/>
				</g>
				<g>
					<path style="fill:#2D2D2D;" d="M286.773,227.659h-18.578c-0.719,0-1.302-0.583-1.302-1.302v-4.193
						c0-0.719,0.583-1.302,1.302-1.302h18.578c0.719,0,1.302,0.583,1.302,1.302v4.193
						C288.074,227.076,287.492,227.659,286.773,227.659z"/>
					<path style="fill:#191919;stroke:#191919;stroke-miterlimit:10;" d="M281.842,227.127h-8.717c-0.59,0-1.068-0.478-1.068-1.068
						v-3.598c0-0.59,0.478-1.068,1.068-1.068h8.717c0.59,0,1.068,0.478,1.068,1.068v3.598
						C282.91,226.649,282.432,227.127,281.842,227.127z"/>
				</g>
				<g>
					<path style="fill:#2D2D2D;" d="M312.613,227.659h-18.578c-0.719,0-1.302-0.583-1.302-1.302v-4.193
						c0-0.719,0.583-1.302,1.302-1.302h18.578c0.719,0,1.302,0.583,1.302,1.302v4.193
						C313.915,227.076,313.332,227.659,312.613,227.659z"/>
					<path style="fill:#191919;stroke:#191919;stroke-miterlimit:10;" d="M307.683,227.127h-8.717c-0.59,0-1.068-0.478-1.068-1.068
						v-3.598c0-0.59,0.478-1.068,1.068-1.068h8.717c0.59,0,1.068,0.478,1.068,1.068v3.598
						C308.75,226.649,308.272,227.127,307.683,227.127z"/>
				</g>
				<g>
					<path style="fill:#2D2D2D;" d="M286.773,238.236h-18.578c-0.719,0-1.302-0.583-1.302-1.302v-4.193
						c0-0.719,0.583-1.302,1.302-1.302h18.578c0.719,0,1.302,0.583,1.302,1.302v4.193
						C288.074,237.653,287.492,238.236,286.773,238.236z"/>
					<path style="fill:#191919;stroke:#191919;stroke-miterlimit:10;" d="M281.842,237.704h-8.717c-0.59,0-1.068-0.478-1.068-1.068
						v-3.598c0-0.59,0.478-1.068,1.068-1.068h8.717c0.59,0,1.068,0.478,1.068,1.068v3.598
						C282.91,237.226,282.432,237.704,281.842,237.704z"/>
				</g>
				<g>
					<path style="fill:#2D2D2D;" d="M312.613,238.236h-18.578c-0.719,0-1.302-0.583-1.302-1.302v-4.193
						c0-0.719,0.583-1.302,1.302-1.302h18.578c0.719,0,1.302,0.583,1.302,1.302v4.193
						C313.915,237.653,313.332,238.236,312.613,238.236z"/>
					<path style="fill:#191919;stroke:#191919;stroke-miterlimit:10;" d="M307.683,237.704h-8.717c-0.59,0-1.068-0.478-1.068-1.068
						v-3.598c0-0.59,0.478-1.068,1.068-1.068h8.717c0.59,0,1.068,0.478,1.068,1.068v3.598
						C308.75,237.226,308.272,237.704,307.683,237.704z"/>
				</g>
			</g>
		</g>
		<g>
			<path style="fill:#3B3B3C;" d="M410.338,193.613h34.888c1.021,0,1.849,0.828,1.849,1.849v24.251c0,1.021-0.828,1.849-1.849,1.849
				h-34.888c-1.021,0-1.849-0.828-1.849-1.849v-24.251C408.488,194.441,409.316,193.613,410.338,193.613z"/>
			<path style="fill:#666666;stroke:#666666;stroke-miterlimit:10;" d="M436.429,197.731h10.778c0.572,0,1.036,0.464,1.036,1.036
				v6.869c0,0.572-0.464,1.036-1.036,1.036h-10.778c-0.572,0-1.036-0.464-1.036-1.036v-6.869
				C435.393,198.195,435.857,197.731,436.429,197.731z"/>
			<path style="fill:#1E1E1E;stroke:#1E1E1E;stroke-miterlimit:10;" d="M428.853,213.498h13.489c0.592,0,1.071,0.48,1.071,1.071
				v3.362c0,0.592-0.48,1.071-1.071,1.071h-13.489c-0.592,0-1.071-0.48-1.071-1.071v-3.362
				C427.782,213.978,428.261,213.498,428.853,213.498z"/>
			<path style="fill:#666666;stroke:#666666;stroke-miterlimit:10;" d="M414.361,196.573h8.332c0.683,0,1.237,0.554,1.237,1.237
				v19.557c0,0.683-0.554,1.237-1.237,1.237h-8.332c-0.683,0-1.237-0.554-1.237-1.237V197.81
				C413.124,197.127,413.678,196.573,414.361,196.573z"/>
			<path style="fill:#262626;stroke:#262626;stroke-miterlimit:10;" d="M416.71,200.954h3.634c0.576,0,1.042,0.467,1.042,1.042
				v3.634c0,0.576-0.467,1.042-1.042,1.042h-3.634c-0.576,0-1.042-0.467-1.042-1.042v-3.634
				C415.668,201.421,416.135,200.954,416.71,200.954z"/>
		</g>
	</g>
</g>
<g id="Layer_1">
</g>
</svg>
